<svg width="392" height="205" viewBox="0 0 392 205" fill="none" xmlns="http://www.w3.org/2000/svg">
<path d="M98.9002 154.35C90.9002 165.23 81.1601 174.35 68.7402 180.03C63.0002 182.7 57.0002 185 51.4202 188C49.2539 189.045 47.2661 190.425 45.5302 192.09C42.4802 195.24 42.1502 198.21 44.3802 201.97C44.7602 202.62 45.8602 203.2 45.0402 204.09C44.4702 204.7 43.6602 204.09 43.0402 203.91C30.4802 200.38 26.5602 191.76 32.0402 179.74C33.1643 177.387 34.4612 175.121 35.9202 172.96C38.9202 168.23 42.5002 163.8 44.6002 158.5C47.7702 150.5 45.8602 144.27 38.6802 139.58C35.3972 137.55 31.9241 135.845 28.3102 134.49C24.3602 132.89 20.3602 131.37 16.4202 129.73C13.0773 128.447 10.0344 126.49 7.48119 123.98C4.92801 121.47 2.91925 118.46 1.58016 115.14C-2.00984 106.27 0.950156 98.3398 6.22016 91.1398C13.8802 80.6798 24.7002 74.8698 36.7602 70.9998C37.7602 70.6898 38.7602 70.4998 39.7602 70.1898C40.7602 69.8798 41.8502 69.9998 42.0002 68.8698C42.1502 67.8698 41.0902 67.5998 40.4702 67.0698C37.2802 64.3598 34.2802 61.4898 32.2702 57.7298C26.4502 46.8398 28.3502 35.1198 37.2702 26.5198C40.4755 23.4284 44.1987 20.9238 48.2702 19.1198C42.7502 16.9398 38.1002 18.1198 33.4802 19.1198C29.1402 20.1198 25.6002 22.8598 21.6602 24.7398C17.1302 26.9098 13.1102 24.5598 12.6602 19.4798C12.3879 16.011 13.3906 12.562 15.4802 9.77979C17.4805 6.97431 19.9501 4.53517 22.7802 2.56979C27.1302 -0.570207 32.0002 -0.410207 36.8602 0.819793C44.0088 2.68442 50.154 7.25211 54.0002 13.5598C54.6162 14.6798 55.5163 15.6179 56.6099 16.2797C57.7035 16.9415 58.9521 17.3037 60.2302 17.3298C71.5002 18.1198 82.2301 28.9398 84.0901 40.1398C85.4101 48.2498 84.0901 55.2498 78.0901 61.0798C76.8701 62.2598 76.6802 63.2598 78.7602 63.4998C91.6802 64.9998 98.8102 74.1198 104.42 84.2798C117.9 108.68 115.19 132.22 98.9002 154.35Z" fill="url(#paint0_linear_39_1153)"/>
<path d="M150.13 92.9797C138.37 92.9797 128.83 101.8 128.83 114.28C128.83 126.82 138.37 135.58 150.13 135.58C161.35 135.58 169.51 127.36 170.77 117.7V112.36H147.79V117.82H163.45C162.43 124.84 157.69 129.4 150.13 129.4C141.85 129.4 135.85 123.46 135.85 114.28C135.85 105.1 141.85 99.2197 150.13 99.2197C155.11 99.2197 159.07 101.32 161.29 105.52H169.51C166.33 97.3597 158.83 92.9797 150.13 92.9797ZM200.557 93.4597H177.517V135.22H200.557V129.64H184.357V116.86H198.757V111.28H184.357V99.0397H200.557V93.4597ZM236.401 93.4597V124.54L215.821 93.4597H208.981V135.22H215.821V104.08L236.401 135.22H243.241V93.4597H236.401ZM252.224 135.22H259.064V93.5197H252.224V135.22ZM291.084 93.4597H268.044V135.22H291.084V129.64H274.884V116.86H289.284V111.28H274.884V99.0397H291.084V93.4597Z" fill="#307AB9"/>
<path d="M317.48 109.81C317.48 120.43 324.92 125.47 333.68 125.47C342.38 125.47 350.06 120.43 350.06 109.81V83.3498H343.22V109.93C343.22 116.41 339.56 119.47 333.74 119.47C327.98 119.47 324.32 116.41 324.32 109.93V83.3498H317.48V109.81ZM387.106 113.23C387.106 97.9898 365.026 103.87 365.026 94.4498C365.026 90.4298 368.086 88.5098 372.046 88.6298C376.366 88.7498 378.826 91.3298 379.066 94.1498H386.626C386.026 87.0098 380.386 82.8098 372.406 82.8098C363.886 82.8098 358.066 87.3698 358.066 94.6898C358.066 110.05 380.206 103.51 380.206 113.59C380.206 117.13 377.506 119.71 372.706 119.71C367.966 119.71 365.566 116.95 365.266 113.53H357.946C357.946 120.91 364.366 125.47 372.706 125.47C382.006 125.47 387.106 119.47 387.106 113.23Z" fill="#307AB9"/>
<path d="M68.7805 117.08C68.2005 117.08 67.6105 116.99 67.0305 116.96C66.9773 116.956 66.9255 116.942 66.8782 116.917C66.8308 116.893 66.789 116.859 66.7553 116.818C66.7216 116.777 66.6966 116.729 66.6821 116.678C66.6675 116.626 66.6635 116.573 66.6705 116.52C68.1038 104.713 70.0671 93.2066 72.5605 81.9999C72.6055 81.8825 72.694 81.787 72.8075 81.733C72.9211 81.679 73.051 81.6708 73.1705 81.7099L75.4205 82.1699C75.7105 82.2299 75.8905 82.4499 75.8405 82.6599C73.1271 93.6932 70.9305 105.027 69.2505 116.66C69.2312 116.769 69.173 116.868 69.0866 116.938C69.0003 117.008 68.8915 117.044 68.7805 117.04V117.08ZM58.9105 113.93C59.3505 113.12 59.7905 112.31 60.2505 111.51C60.2835 111.455 60.3049 111.393 60.3132 111.329C60.3215 111.265 60.3166 111.201 60.2988 111.139C60.2809 111.077 60.2506 111.019 60.2096 110.97C60.1686 110.92 60.1179 110.879 60.0605 110.85C55.4905 108.57 50.6505 106.38 45.5405 104.35C48.5561 99.7732 51.93 95.443 55.6305 91.3999C55.677 91.3509 55.7116 91.2918 55.7316 91.2273C55.7516 91.1628 55.7565 91.0945 55.7458 91.0277C55.7352 90.961 55.7093 90.8976 55.6703 90.8425C55.6312 90.7874 55.5799 90.742 55.5205 90.7099C54.6705 90.1599 53.8005 89.6199 52.9305 89.0799C52.8051 88.9969 52.6538 88.9623 52.5048 88.9825C52.3558 89.0027 52.2192 89.0765 52.1205 89.1899C47.7733 94.2893 43.9162 99.7869 40.6005 105.61C40.5618 105.673 40.5376 105.743 40.5294 105.817C40.5213 105.89 40.5294 105.964 40.5533 106.034C40.5772 106.104 40.6163 106.167 40.6676 106.22C40.719 106.273 40.7814 106.314 40.8505 106.34C46.7812 108.645 52.5889 111.256 58.2505 114.16C58.3088 114.189 58.3723 114.206 58.4372 114.21C58.5022 114.214 58.5673 114.205 58.6287 114.183C58.6901 114.162 58.7467 114.128 58.7951 114.085C58.8435 114.041 58.8827 113.989 58.9105 113.93ZM85.9105 110.12C90.6449 106.303 95.7544 102.976 101.16 100.19C101.217 100.159 101.264 100.113 101.296 100.058C101.329 100.002 101.346 99.9392 101.346 99.8749C101.346 99.8106 101.329 99.7475 101.296 99.6921C101.264 99.6367 101.217 99.591 101.16 99.5599C96.1605 95.2899 90.7405 91.0799 84.8905 86.9899C84.77 86.9065 84.627 86.8618 84.4805 86.8618C84.334 86.8618 84.1909 86.9065 84.0705 86.9899C83.4038 87.5832 82.7371 88.1832 82.0705 88.7899C82.026 88.8351 81.9929 88.8903 81.974 88.9508C81.955 89.0114 81.9507 89.0756 81.9615 89.1381C81.9722 89.2006 81.9977 89.2597 82.0358 89.3104C82.0739 89.3612 82.1235 89.4021 82.1805 89.4299C87.0405 92.6166 91.6205 95.8899 95.9205 99.2499C91.4763 101.709 87.2479 104.539 83.2805 107.71C83.2345 107.747 83.1974 107.795 83.1719 107.848C83.1465 107.902 83.1333 107.961 83.1333 108.02C83.1333 108.079 83.1465 108.138 83.1719 108.191C83.1974 108.245 83.2345 108.292 83.2805 108.33C83.9305 108.92 84.5705 109.52 85.2005 110.11C85.2963 110.188 85.4154 110.231 85.5387 110.233C85.6621 110.234 85.7824 110.195 85.8805 110.12H85.9105Z" fill="white"/>
<defs>
<linearGradient id="paint0_linear_39_1153" x1="56.5202" y1="204.33" x2="56.5202" y2="-0.000207043" gradientUnits="userSpaceOnUse">
<stop stop-color="white"/>
<stop offset="0.14" stop-color="#63C3E2"/>
<stop offset="1" stop-color="#317BB9"/>
</linearGradient>
</defs>
</svg>
