<svg width="102" height="198" viewBox="0 0 102 198" fill="none" xmlns="http://www.w3.org/2000/svg">
<path d="M10.1386 19.5012L11.3857 19.6549L12.5369 30.8373C11.8909 31.2783 11.3728 31.8825 11.0354 32.5888C10.6979 33.295 10.553 34.0781 10.6153 34.8585C10.6777 35.639 10.9451 36.389 11.3904 37.0325C11.8357 37.6761 12.443 38.1902 13.1508 38.5227L11.3857 50.7522C11.1938 52.1067 12.0668 53.3941 13.1125 53.2788L21.1036 52.4622C22.1493 52.3565 22.7441 50.9155 22.2836 49.5801L18.0722 37.9655C18.6922 37.4947 19.1775 36.8688 19.4794 36.1506C19.7812 35.4324 19.8889 34.6473 19.7917 33.8742C19.6945 33.1011 19.3957 32.3673 18.9255 31.7465C18.4552 31.1257 17.8301 30.6398 17.1128 30.3377L16.0768 20.2698L28.9701 22.0374C27.6602 25.5061 27.1513 29.2267 27.4814 32.9204C27.8116 36.6141 28.9722 40.185 30.8764 43.3656C32.7806 46.5463 35.3789 49.2541 38.4767 51.2861C41.5744 53.3182 45.0912 54.6218 48.7636 55.0993C52.436 55.5767 56.1686 55.2157 59.6819 54.0432C63.1951 52.8707 66.3978 50.9172 69.0499 48.3289C71.702 45.7407 73.7348 42.585 74.9959 39.0982C76.257 35.6114 76.7137 31.8841 76.3318 28.1954C75.9234 24.4009 74.625 20.7569 72.5425 17.5606L90.4914 11.2298C93.8778 10.0289 93.4365 5.68663 89.8679 5.19668L52.579 0.143497C50.0268 -0.196646 47.4305 0.0699395 45.0004 0.921654L9.50541 13.4105C8.75316 13.5581 8.08325 13.9821 7.62743 14.5993C7.1716 15.2165 6.96285 15.9821 7.04222 16.7457C7.12159 17.5092 7.48334 18.2153 8.05633 18.7252C8.62932 19.2352 9.37209 19.512 10.1386 19.5012Z" fill="#3B82F6"/>
<path d="M93.5745 70.3524C88.9615 60.9043 83.3565 50.8628 73.9674 49.1969C72.4275 48.9541 70.8648 48.9476 69.3245 49.1777L50.5934 51.7103C49.8329 51.8134 49.0794 51.9696 48.3375 52.1779C43.428 53.5295 33.8644 57.1324 33.1274 57.4177C22.4466 61.6169 12.9069 67.8787 6.25834 78.9812C1.69181 86.6233 -0.81124 94.9992 2.53706 104.268C3.70773 107.645 5.49908 110.727 7.80073 113.324C10.1024 115.92 12.8656 117.976 15.92 119.365C19.453 121.032 23.0418 122.571 26.5934 124.195C29.8358 125.575 32.9426 127.31 35.8662 129.373C42.3401 134.198 44.1504 140.696 41.466 149.169C39.6787 154.769 36.596 159.476 34.0094 164.489C32.7393 166.792 31.6227 169.192 30.6683 171.67C26.0585 184.358 29.6725 193.381 40.9219 196.909C41.5221 197.099 42.2546 197.717 42.7545 197.068C43.4615 196.121 42.479 195.527 42.1309 194.85C40.0735 190.931 40.3213 187.805 42.983 184.451C44.48 182.694 46.2287 181.214 48.1611 180.068C53.1074 176.834 58.3646 174.352 63.4321 171.464C74.3985 165.273 82.9194 155.591 89.8593 144.042C103.984 120.573 105.999 95.7974 93.5745 70.3524ZM50.4986 105.171L49.1098 107.432C49.045 107.542 48.943 107.619 48.8261 107.646C48.7092 107.674 48.587 107.649 48.4862 107.579L34.1573 97.101C34.1043 97.0628 34.0594 97.0126 34.0257 96.9539C33.9919 96.8952 33.9701 96.8293 33.9617 96.7607C33.9533 96.6921 33.9584 96.6223 33.9769 96.5561C33.9953 96.49 34.0265 96.4289 34.0685 96.3772L45.3288 82.1936C45.3685 82.1452 45.4171 82.1063 45.4713 82.0794C45.5256 82.0524 45.5844 82.038 45.6441 82.0371C45.7037 82.0361 45.763 82.0486 45.8181 82.0737C45.8732 82.0989 45.9229 82.1362 45.9643 82.1833L47.8523 83.971C47.8967 84.0146 47.9325 84.0677 47.9573 84.1269C47.9822 84.1862 47.9955 84.2504 47.9966 84.3155C47.9977 84.3807 47.9864 84.4453 47.9635 84.5053C47.9406 84.5654 47.9066 84.6196 47.8635 84.6646L38.4178 96.1173L50.4009 104.489C50.4954 104.567 50.5585 104.681 50.5767 104.809C50.595 104.936 50.567 105.066 50.4986 105.171ZM58.7271 111.281C58.7198 111.337 58.7024 111.391 58.676 111.439C58.6496 111.488 58.6147 111.53 58.5732 111.564C58.5317 111.598 58.4845 111.623 58.4342 111.637C58.384 111.65 58.3316 111.653 58.2803 111.645L56.6 111.378C56.5491 111.371 56.4999 111.353 56.4553 111.326C56.4107 111.298 56.3716 111.26 56.3404 111.216C56.3092 111.171 56.2864 111.12 56.2734 111.066C56.2604 111.012 56.2575 110.956 56.2648 110.9L61.0514 74.7067C61.05 74.6396 61.0634 74.5732 61.0904 74.513C61.1174 74.4528 61.1572 74.4005 61.2065 74.3606C61.2559 74.3207 61.3132 74.2943 61.3739 74.2836C61.4346 74.2729 61.4968 74.2782 61.5552 74.299L63.2355 74.5661C63.2874 74.5728 63.3376 74.591 63.3829 74.6195C63.4282 74.6481 63.4678 74.6864 63.4991 74.7321C63.5305 74.7778 63.5531 74.8299 63.5654 74.8854C63.5777 74.9408 63.5796 74.9984 63.5709 75.0546L58.7271 111.281ZM85.0177 89.6844L73.7574 103.868C73.7176 103.916 73.6691 103.955 73.6148 103.982C73.5606 104.009 73.5017 104.024 73.4421 104.025C73.3824 104.025 73.3232 104.013 73.2681 103.988C73.213 103.963 73.1632 103.925 73.1219 103.878L71.2243 102.091C71.1393 102 71.0904 101.876 71.0883 101.746C71.0862 101.616 71.131 101.491 71.213 101.397L80.7254 89.9013L68.7424 81.5295C68.6924 81.4944 68.6493 81.4488 68.6157 81.3952C68.5821 81.3417 68.5587 81.2813 68.5469 81.2178C68.5351 81.1542 68.5351 81.0888 68.5469 81.0253C68.5588 80.9619 68.5822 80.9017 68.6158 80.8483L70.0045 78.5869C70.0725 78.4813 70.1751 78.4082 70.2912 78.3829C70.4073 78.3575 70.528 78.3818 70.6284 78.4507L84.9101 88.9924C84.9601 89.0292 85.0027 89.0766 85.0354 89.1318C85.068 89.187 85.0901 89.2489 85.1001 89.3136C85.1102 89.3784 85.1081 89.4447 85.0939 89.5084C85.0797 89.5721 85.0538 89.632 85.0177 89.6844Z" fill="#3B82F6"/>
</svg>
